<svg width="36" height="36" viewBox="0 0 36 36" fill="none" xmlns="http://www.w3.org/2000/svg">
<path d="M18.5865 6.393C18.4426 6.24644 18.2702 6.13098 18.0799 6.05378C17.8896 5.97659 17.6854 5.9393 17.4801 5.94422C17.2748 5.94914 17.0727 5.99617 16.8863 6.0824C16.6999 6.16863 16.5332 6.29221 16.3965 6.4455L7.131 16.824C6.8856 17.0989 6.74998 17.4545 6.75 17.823V29.25C6.75 29.6478 6.90804 30.0294 7.18934 30.3107C7.47064 30.592 7.85218 30.75 8.25 30.75H12.75C13.1478 30.75 13.5294 30.592 13.8107 30.3107C14.092 30.0294 14.25 29.6478 14.25 29.25V24C14.25 23.6022 14.408 23.2206 14.6893 22.9393C14.9706 22.658 15.3522 22.5 15.75 22.5H20.25C20.6478 22.5 21.0294 22.658 21.3107 22.9393C21.592 23.2206 21.75 23.6022 21.75 24V29.25C21.75 29.6478 21.908 30.0294 22.1893 30.3107C22.4706 30.592 22.8522 30.75 23.25 30.75H27.75C28.1478 30.75 28.5294 30.592 28.8107 30.3107C29.092 30.0294 29.25 29.6478 29.25 29.25V17.8635C29.2495 17.4706 29.095 17.0936 28.8195 16.8135L18.5865 6.393Z" stroke="#1A1A1A"/>
</svg>
