<svg width="36" height="36" viewBox="0 0 36 36" fill="none" xmlns="http://www.w3.org/2000/svg">
<path d="M17.5 4.03125C21.3361 4.03547 25.0141 5.56094 27.7266 8.27344C30.4391 10.9859 31.9645 14.6639 31.9688 18.5L31.959 19.0361C31.8599 21.7099 31.0206 24.3076 29.5303 26.5381C27.9405 28.9174 25.6808 30.7721 23.0371 31.8672C20.3934 32.9622 17.4843 33.2486 14.6777 32.6904C11.8711 32.1322 9.29302 30.754 7.26953 28.7305C5.24604 26.707 3.86785 24.1289 3.30957 21.3223C2.75139 18.5157 3.03776 15.6066 4.13281 12.9629C5.22793 10.3192 7.0826 8.05953 9.46191 6.46973C11.6924 4.9794 14.2901 4.14013 16.9639 4.04102L17.5 4.03125ZM22.6172 6.14648C20.174 5.13447 17.4853 4.86986 14.8916 5.38574C12.2978 5.90167 9.91492 7.17492 8.04492 9.04492C6.17492 10.9149 4.90167 13.2978 4.38574 15.8916C3.86986 18.4853 4.13447 21.174 5.14648 23.6172C6.15853 26.0604 7.87245 28.1489 10.0713 29.6182C12.2701 31.0874 14.8555 31.8711 17.5 31.8711C21.0451 31.8672 24.4434 30.4569 26.9502 27.9502C29.4569 25.4434 30.8672 22.0451 30.8711 18.5L30.8623 18.0049C30.7708 15.5338 29.9955 13.1327 28.6182 11.0713C27.1489 8.87245 25.0604 7.15853 22.6172 6.14648ZM16.3398 16.791C16.793 16.791 17.2274 16.9716 17.5479 17.292C17.8683 17.6124 18.0488 18.0468 18.0488 18.5V24.2998C18.0488 24.4619 18.1129 24.6178 18.2275 24.7324C18.3422 24.8471 18.498 24.9111 18.6602 24.9111C18.8056 24.9112 18.945 24.9694 19.0479 25.0723C19.1507 25.1752 19.209 25.3145 19.209 25.46C19.209 25.6055 19.1507 25.7448 19.0479 25.8477C18.945 25.9505 18.8056 26.0087 18.6602 26.0088C18.207 26.0088 17.7726 25.8283 17.4521 25.5078C17.1317 25.1874 16.9512 24.753 16.9512 24.2998V18.5C16.9512 18.3379 16.8871 18.182 16.7725 18.0674C16.6578 17.9528 16.5019 17.8887 16.3398 17.8887C16.1944 17.8886 16.055 17.8304 15.9521 17.7275C15.8493 17.6246 15.791 17.4853 15.791 17.3398C15.7911 17.1944 15.8493 17.055 15.9521 16.9521C16.055 16.8493 16.1944 16.7911 16.3398 16.791ZM17.1406 11.0127C17.3594 11.0563 17.56 11.1645 17.7178 11.3223C17.8755 11.48 17.9838 11.6806 18.0273 11.8994C18.0709 12.1183 18.0483 12.3456 17.9629 12.5518C17.8775 12.758 17.7325 12.9346 17.5469 13.0586C17.3613 13.1825 17.1431 13.249 16.9199 13.249C16.6206 13.249 16.3337 13.1296 16.1221 12.918C15.9104 12.7063 15.791 12.4194 15.791 12.1201C15.791 11.897 15.8575 11.6787 15.9814 11.4932C16.1055 11.3075 16.282 11.1626 16.4883 11.0771C16.6945 10.9918 16.9217 10.9692 17.1406 11.0127Z" fill="black" stroke="#1A1A1A" stroke-width="0.0625"/>
</svg>
