<svg width="36" height="36" viewBox="0 0 36 36" fill="none" xmlns="http://www.w3.org/2000/svg">
<path d="M17.25 3C14.2663 3 11.4048 4.20107 9.29505 6.33898C7.18526 8.4769 6 11.3765 6 14.4V15.2308C6.45547 21.4769 11.5719 26.5 17.25 33C23.1786 26.2154 28.5 21.0769 28.5 14.4C28.5 11.3765 27.3147 8.4769 25.205 6.33898C23.0952 4.20107 20.2337 3 17.25 3ZM17.25 8.92308C18.3208 8.92308 19.3675 9.24494 20.2578 9.84794C21.148 10.4509 21.8417 11.308 22.2512 12.3106C22.6606 13.3132 22.7673 14.4164 22.5579 15.4805C22.3484 16.5446 21.8322 17.5219 21.0745 18.2886C20.3168 19.0554 19.3517 19.5771 18.3013 19.7879C17.2508 19.9986 16.1623 19.8889 15.1735 19.4726C14.1846 19.0563 13.3398 18.3521 12.746 17.4492C12.1522 16.5462 11.836 15.4851 11.8376 14.4C11.8396 12.9467 12.4107 11.5537 13.4255 10.5268C14.4403 9.49986 15.8158 8.92308 17.25 8.92308Z" stroke="#1A1A1A" stroke-linecap="round" stroke-linejoin="round"/>
</svg>
