<svg width="29" height="29" viewBox="0 0 29 29" fill="none" xmlns="http://www.w3.org/2000/svg">
<path d="M6.6665 0.5C8.30171 0.500795 9.86973 1.15073 11.026 2.307C12.1823 3.46327 12.8322 5.03129 12.833 6.6665V12.833H6.6665C5.03129 12.8322 3.46327 12.1823 2.307 11.026C1.15073 9.86973 0.500795 8.30171 0.5 6.6665C0.500795 5.03129 1.15073 3.46327 2.307 2.307C3.46327 1.15073 5.03129 0.500795 6.6665 0.5ZM22.0835 0.5C23.7187 0.500795 25.2867 1.15073 26.443 2.307C27.5993 3.46327 28.2492 5.03129 28.25 6.6665C28.2492 8.30171 27.5993 9.86973 26.443 11.026C25.2867 12.1823 23.7187 12.8322 22.0835 12.833H15.917V6.6665C15.9178 5.03129 16.5677 3.46327 17.724 2.307C18.8803 1.15073 20.4483 0.500795 22.0835 0.5ZM6.6665 15.917H12.833V22.0835C12.8322 23.7187 12.1823 25.2867 11.026 26.443C9.86973 27.5993 8.30171 28.2492 6.6665 28.25C5.03129 28.2492 3.46327 27.5993 2.307 26.443C1.15073 25.2867 0.500795 23.7187 0.5 22.0835C0.500795 20.4483 1.15073 18.8803 2.307 17.724C3.46327 16.5677 5.03129 15.9178 6.6665 15.917ZM15.917 15.917H22.0835C23.7187 15.9178 25.2867 16.5677 26.443 17.724C27.5993 18.8803 28.2492 20.4483 28.25 22.0835C28.2492 23.7187 27.5993 25.2867 26.443 26.443C25.2867 27.5993 23.7187 28.2492 22.0835 28.25C20.4483 28.2492 18.8803 27.5993 17.724 26.443C16.5677 25.2867 15.9178 23.7187 15.917 22.0835V15.917Z" stroke="#1A1A1A" stroke-linecap="round" stroke-linejoin="round"/>
</svg>
