<svg width="36" height="36" viewBox="0 0 36 36" fill="none" xmlns="http://www.w3.org/2000/svg">
<path d="M10.2915 4.125C11.9267 4.12579 13.4947 4.77573 14.651 5.932C15.8073 7.08827 16.4572 8.65629 16.458 10.2915V16.458H10.2915C8.65629 16.4572 7.08827 15.8073 5.932 14.651C4.77573 13.4947 4.12579 11.9267 4.125 10.2915C4.12579 8.65629 4.77573 7.08827 5.932 5.932C7.08827 4.77573 8.65629 4.12579 10.2915 4.125ZM25.7085 4.125C27.3437 4.12579 28.9117 4.77573 30.068 5.932C31.2243 7.08827 31.8742 8.65629 31.875 10.2915C31.8742 11.9267 31.2243 13.4947 30.068 14.651C28.9117 15.8073 27.3437 16.4572 25.7085 16.458H19.542V10.2915C19.5428 8.65629 20.1927 7.08827 21.349 5.932C22.5053 4.77573 24.0733 4.12579 25.7085 4.125ZM10.2915 19.542H16.458V25.7085C16.4572 27.3437 15.8073 28.9117 14.651 30.068C13.4947 31.2243 11.9267 31.8742 10.2915 31.875C8.65629 31.8742 7.08827 31.2243 5.932 30.068C4.77573 28.9117 4.12579 27.3437 4.125 25.7085C4.12579 24.0733 4.77573 22.5053 5.932 21.349C7.08827 20.1927 8.65629 19.5428 10.2915 19.542ZM19.542 19.542H25.7085C27.3437 19.5428 28.9117 20.1927 30.068 21.349C31.2243 22.5053 31.8742 24.0733 31.875 25.7085C31.8742 27.3437 31.2243 28.9117 30.068 30.068C28.9117 31.2243 27.3437 31.8742 25.7085 31.875C24.0733 31.8742 22.5053 31.2243 21.349 30.068C20.1927 28.9117 19.5428 27.3437 19.542 25.7085V19.542Z" stroke="#1A1A1A" stroke-linecap="round" stroke-linejoin="round"/>
</svg>
