<svg width="24" height="26" viewBox="0 0 24 26" fill="none" xmlns="http://www.w3.org/2000/svg">
<path d="M12.3365 0.94921C12.1926 0.802649 12.0202 0.687194 11.8299 0.609998C11.6396 0.532801 11.4354 0.495509 11.2301 0.500431C11.0248 0.505353 10.8227 0.552385 10.6363 0.638611C10.4499 0.724838 10.2832 0.848423 10.1465 1.00171L0.881 11.3802C0.635603 11.6551 0.49998 12.0107 0.5 12.3792V23.8062C0.5 24.204 0.658036 24.5856 0.93934 24.8669C1.22064 25.1482 1.60218 25.3062 2 25.3062H6.5C6.89782 25.3062 7.27936 25.1482 7.56066 24.8669C7.84196 24.5856 8 24.204 8 23.8062V18.5562C8 18.1584 8.15804 17.7769 8.43934 17.4955C8.72064 17.2142 9.10218 17.0562 9.5 17.0562H14C14.3978 17.0562 14.7794 17.2142 15.0607 17.4955C15.342 17.7769 15.5 18.1584 15.5 18.5562V23.8062C15.5 24.204 15.658 24.5856 15.9393 24.8669C16.2206 25.1482 16.6022 25.3062 17 25.3062H21.5C21.8978 25.3062 22.2794 25.1482 22.5607 24.8669C22.842 24.5856 23 24.204 23 23.8062V12.4197C22.9995 12.0268 22.845 11.6498 22.5695 11.3697L12.3365 0.94921Z" stroke="#1A1A1A"/>
</svg>
